<?xml version="1.0" encoding="utf-8"?>
<!-- Generator: Adobe Illustrator 21.0.0, SVG Export Plug-In . SVG Version: 6.00 Build 0)  -->
<svg version="1.1" id="Layer_1" xmlns="http://www.w3.org/2000/svg" xmlns:xlink="http://www.w3.org/1999/xlink" x="0px" y="0px"
	 viewBox="0 0 146.9 160.4" style="enable-background:new 0 0 146.9 160.4;" xml:space="preserve">
<style type="text/css">
	.st0{fill:#2B738C;}
	.st1{fill:#F68C4F;}
	.st2{fill:#FCCD34;}
	.st3{fill:#00A68C;}
	.st4{fill:#BDD64C;}
</style>
<path class="st0" d="M62.6,69.8c-4.1,7.6-1.3,17.1,6.3,21.2c7.6,4.1,17.1,1.3,21.2-6.3c4.1-7.6,1.3-17.1-6.3-21.2
	C76.2,59.4,66.7,62.2,62.6,69.8"/>
<path class="st1" d="M133.8,63.3l-0.4-0.4C133.5,63,133.6,63.1,133.8,63.3L133.8,63.3z"/>
<path class="st2" d="M76.2,35.9c0,0-10.3-9.2-24.8-5.2c-0.2,0-0.3,0.1-0.5,0.1l9.7-9.7c0.2-0.2,0.5-0.5,0.7-0.7l-0.1,0L22.5,59.2
	l0.1,0.3l-0.6,0.6c-4.8,3.9-7.9,9.9-7.9,16.6c0,5,1.7,9.6,4.6,13.2c0.2,0.2,0.3,0.4,0.5,0.6c0.5,0.6,1.1,1.2,1.6,1.8l9.7,9.7
	c0-0.1,0-0.2-0.1-0.2c-4.2-14.7,5.1-25.1,5.1-25.1l0.1-0.1L76.4,36L76.2,35.9z"/>
<path class="st1" d="M50.9,30.8c0.2-0.1,0.3-0.1,0.5-0.1c14.5-4,24.8,5.2,24.8,5.2l0.2,0.2l36.3,36.4c6-9,4.3-21.1,2.7-27.6
	L92.8,22.3c-3.9-4.8-9.9-7.9-16.6-7.9c-5.8,0-11,2.3-14.9,6c-0.2,0.2-0.5,0.5-0.7,0.7L50.9,30.8z"/>
<path class="st3" d="M18.6,90.1l0.5,0.5C19,90.4,18.8,90.2,18.6,90.1L18.6,90.1z"/>
<path class="st4" d="M133.7,63.3c-0.1-0.2-0.3-0.3-0.4-0.5c-0.5-0.6-1-1.1-1.6-1.7l-9.7-9.7c0,0.1,0,0.1,0.1,0.2
	c4.2,14.7-5.1,25.1-5.1,25.1l0,0l-40.8,40.7c0.1,0.1,10.6,9.4,25.3,5.1l29.2-29.2c4.8-3.9,7.9-9.9,7.9-16.6
	C138.5,71.7,136.7,67,133.7,63.3"/>
<path class="st4" d="M89.5,134.2l0.1,0.1l5.2-5.2l-3.1,3.1C91.1,132.9,90.3,133.6,89.5,134.2"/>
<path class="st3" d="M76.2,117.5L76.2,117.5l-36-36.1c-6,8.7-4.6,20.5-3,27.3L59.6,131c3.9,4.8,9.9,7.9,16.6,7.9
	c5.1,0,9.7-1.8,13.4-4.7c0.8-0.6,1.5-1.3,2.2-2l3.1-3.1l6.7-6.6c0,0,0,0-0.1,0C86.8,126.8,76.3,117.5,76.2,117.5"/>
</svg>
